<svg id="Layer_1" data-name="Layer 1" xmlns="http://www.w3.org/2000/svg" viewBox="0 0 331.63 158.18"><defs><style>.cls-1{fill:#231f20;}.cls-2{fill:#e82c2e;}.cls-3{fill:#003660;}.cls-4{fill:#fff;}.cls-5{fill:#ffcb05;}</style></defs><title>Untitled-1</title><path class="cls-1" d="M168.05,8.39v2.78h10.36V70.5a18.11,18.11,0,0,1-7.16,14.69,22.84,22.84,0,0,1-14.55,5.21,16.33,16.33,0,0,1-11.18-3.83c-3.19-2.79-4.8-6.79-4.8-11.91V11.17h11.8V8.39h-39v2.78h8.81V70.5a20.85,20.85,0,0,0,9.29,17.84c5.52,3.89,12.32,5.87,20.22,5.87s14.67-2,20.12-5.87a20.86,20.86,0,0,0,9.3-17.84V11.17h8.52V8.39Z"/><path class="cls-1" d="M250.13,11.69c-.92,0-4.56-1.66-6.67-2.4a33.82,33.82,0,0,0-11.29-1.92c-.89,0-1.76,0-2.63.1-9.7.69-18.14,5.21-25.13,13.49a45.38,45.38,0,0,0-10.89,29.83A45.89,45.89,0,0,0,204,80.41c6.81,8.43,15.23,13,25.05,13.72,0,0,1.56.13,2.36.13a57.29,57.29,0,0,0,14.69-2.61c2.11-.74,5.74-2.4,6.67-2.4,1.9,0,3.45.55,3.45,3.45,0,.14,0,.27,0,.4h2.3V65.44h-2.86s0,1.39,0,1.94c-.13,6.38-1.47,12.59-5.17,17.24-4.16,5.21-10.91,7.11-19.25,7.26-.65,0-1.86-.1-1.86-.1-5.66-.37-9.41-2.87-11.57-6.66-1.72-2.84-2.9-8.27-3.51-16.13-.41-5-.62-11.17-.62-18.2,0-5.45.14-10.39.42-14.68.54-9.12,1.53-15.27,2.92-18.25,2.25-4.57,6.43-7.45,12.62-8,.84-.07,1.72-.11,2.63-.11,5.66,0,10.73,1.54,15.3,6.88,4.08,4.77,5.46,11.22,5.46,18v.87h2.89l0-27.21h-2.35c0,3.19-1.55,3.42-3.45,3.42"/><path class="cls-1" d="M322.9,11.69c-.92,0-4.56-1.66-6.67-2.4a33.83,33.83,0,0,0-11.29-1.92c-.89,0-1.76,0-2.63.1-9.7.69-18.14,5.21-25.13,13.49A45.37,45.37,0,0,0,266.3,50.79a45.89,45.89,0,0,0,10.47,29.62c6.81,8.43,15.23,13,25.05,13.72,0,0,1.56.13,2.36.13a57.31,57.31,0,0,0,14.69-2.61c2.11-.74,5.74-2.4,6.67-2.4,1.9,0,3.45.55,3.45,3.45a4,4,0,0,1,0,.4h2.3V65.44h-2.86s0,1.39,0,1.94c-.13,6.38-1.47,12.59-5.17,17.24C319,89.82,312.3,91.73,304,91.88c-.64,0-1.86-.1-1.86-.1-5.66-.37-9.41-2.87-11.56-6.66-1.72-2.84-2.9-8.27-3.51-16.13-.41-5-.62-11.17-.62-18.2,0-5.45.14-10.39.42-14.68.54-9.12,1.53-15.27,2.92-18.25,2.25-4.57,6.43-7.45,12.62-8,.84-.07,1.72-.11,2.63-.11,5.66,0,10.73,1.54,15.3,6.88,4.08,4.77,5.46,11.22,5.46,18v.87h2.89l0-27.21h-2.35c0,3.19-1.55,3.42-3.45,3.42"/><path class="cls-1" d="M8.6,154.81a8.12,8.12,0,0,1,.07-16.24,8.18,8.18,0,0,1,6.13,2.49l-1.21,1.3a6.82,6.82,0,0,0-4.94-2.15,6.5,6.5,0,0,0,0,13,6.81,6.81,0,0,0,5.07-2.27l1.17,1.14a8.17,8.17,0,0,1-6.28,2.76"/><path class="cls-1" d="M22.66,154.81a6,6,0,0,1-6-6,6,6,0,1,1,6,6m0-10.59a4.26,4.26,0,0,0-4.24,4.51,4.36,4.36,0,0,0,4.28,4.53A4.27,4.27,0,0,0,27,148.78a4.38,4.38,0,0,0-4.31-4.55"/><rect class="cls-1" x="31.65" y="138.16" width="1.73" height="16.38"/><path class="cls-1" d="M37.66,145.16l-.52-1.41a9.58,9.58,0,0,1,4.22-1c3.16,0,4.94,1.62,4.94,4.67v7.09H44.64v-1.75a5.08,5.08,0,0,1-4.2,2c-2.15,0-4.33-1.21-4.33-3.64s2-3.77,5-3.77a12.38,12.38,0,0,1,3.57.49v-.4c0-2.09-1.28-3.16-3.46-3.16a8.07,8.07,0,0,0-3.52.85m.2,5.92c0,1.48,1.35,2.33,2.92,2.33,2.13,0,3.88-1.3,3.88-3.14v-1.12a12.1,12.1,0,0,0-3.41-.49c-2.18,0-3.39.94-3.39,2.42m2.76-9.89,2.13-3.25,1.8.83L42,141.2Z"/><path class="cls-1" d="M49.65,138.5h2v1.91h-2Zm.11,4.44h1.73v11.6H49.76Z"/><path class="cls-1" d="M58.87,154.77a8,8,0,0,1-4.8-1.7l.88-1.24a6.78,6.78,0,0,0,4,1.48c1.39,0,2.4-.72,2.4-1.84v0c0-1.17-1.37-1.62-2.89-2-1.82-.52-3.84-1.14-3.84-3.27v0c0-2,1.66-3.32,3.95-3.32A7.92,7.92,0,0,1,62.75,144l-.78,1.3a6.56,6.56,0,0,0-3.43-1.12c-1.37,0-2.24.72-2.24,1.68v0c0,1.1,1.44,1.53,3,2,1.8.54,3.72,1.24,3.72,3.32v0c0,2.2-1.82,3.48-4.13,3.48"/><path class="cls-1" d="M68.22,151.24a1.72,1.72,0,0,0,2,1.93,3.62,3.62,0,0,0,1.68-.4v1.48a4.34,4.34,0,0,1-2.09.49,3,3,0,0,1-3.27-3.28v-7H64.88v-1.53h1.62v-3.5h1.73v3.5H71.9v1.53H68.22Z"/><path class="cls-1" d="M79.16,153.31a4.8,4.8,0,0,0,3.66-1.64l1.08,1a6,6,0,0,1-4.78,2.18,5.77,5.77,0,0,1-5.79-6.06c0-3.36,2.36-6.06,5.56-6.06,3.43,0,5.41,2.74,5.41,6.15a4.62,4.62,0,0,1,0,.54h-9.2a4.06,4.06,0,0,0,4.08,3.93m3.39-5.2c-.18-2.11-1.39-4-3.7-4-2,0-3.55,1.68-3.77,4Z"/><path class="cls-1" d="M95.43,154.54H93.7v-11.6h1.73v2a4.39,4.39,0,0,1,4-2.27c2.8,0,4.44,1.89,4.44,4.65v7.2h-1.73v-6.78c0-2.16-1.17-3.5-3.21-3.5a3.41,3.41,0,0,0-3.48,3.64Z"/><path class="cls-1" d="M107.9,145.16l-.52-1.41a9.59,9.59,0,0,1,4.22-1c3.16,0,4.94,1.62,4.94,4.67v7.09h-1.66v-1.75a5.08,5.08,0,0,1-4.19,2c-2.16,0-4.33-1.21-4.33-3.64s2-3.77,5-3.77a12.38,12.38,0,0,1,3.57.49v-.4c0-2.09-1.28-3.16-3.45-3.16a8.06,8.06,0,0,0-3.52.85m.2,5.92c0,1.48,1.35,2.33,2.92,2.33,2.13,0,3.88-1.3,3.88-3.14v-1.12a12.09,12.09,0,0,0-3.41-.49c-2.18,0-3.39.94-3.39,2.42"/><path class="cls-1" d="M128.32,154.54h-1.73V138.16h1.73V145a4.39,4.39,0,0,1,4-2.27c2.8,0,4.44,1.89,4.44,4.65v7.2H135v-6.78c0-2.16-1.17-3.5-3.21-3.5a3.41,3.41,0,0,0-3.48,3.64Z"/><path class="cls-1" d="M147.78,154.81a8.12,8.12,0,1,1,8-8.14,7.89,7.89,0,0,1-8,8.14m0-14.61a6.17,6.17,0,0,0-6.15,6.46,6.25,6.25,0,0,0,6.19,6.51,6.18,6.18,0,0,0,6.15-6.46,6.25,6.25,0,0,0-6.19-6.51"/><rect class="cls-1" x="159.23" y="138.16" width="1.73" height="16.38"/><rect class="cls-1" x="164.61" y="138.16" width="1.73" height="16.38"/><path class="cls-1" d="M173.74,154.77a8,8,0,0,1-4.8-1.7l.88-1.24a6.78,6.78,0,0,0,4,1.48c1.39,0,2.4-.72,2.4-1.84v0c0-1.17-1.37-1.62-2.89-2-1.82-.52-3.84-1.14-3.84-3.27v0c0-2,1.66-3.32,3.95-3.32a7.92,7.92,0,0,1,4.17,1.28l-.78,1.3a6.56,6.56,0,0,0-3.43-1.12c-1.37,0-2.24.72-2.24,1.68v0c0,1.1,1.44,1.53,3,2,1.79.54,3.72,1.24,3.72,3.32v0c0,2.2-1.82,3.48-4.13,3.48"/><path class="cls-1" d="M185.85,154.81a6.06,6.06,0,1,1,4.64-10.05L189.35,146a4.69,4.69,0,0,0-3.52-1.75,4.29,4.29,0,0,0-4.15,4.51,4.34,4.34,0,0,0,4.26,4.53,4.78,4.78,0,0,0,3.54-1.73l1.1,1a6,6,0,0,1-4.74,2.24"/><path class="cls-1" d="M198.11,154.81a6,6,0,0,1-6-6,6,6,0,1,1,6,6m0-10.59a4.26,4.26,0,0,0-4.24,4.51,4.36,4.36,0,0,0,4.29,4.53,4.27,4.27,0,0,0,4.26-4.49,4.38,4.38,0,0,0-4.31-4.55"/><path class="cls-1" d="M206.94,138.5h2v1.91h-2Zm.11,4.44h1.73v11.6H207Z"/><rect class="cls-1" x="212.43" y="138.16" width="1.73" height="16.38"/><path class="cls-1" d="M222.93,153.31a4.8,4.8,0,0,0,3.65-1.64l1.08,1a6,6,0,0,1-4.78,2.18,5.77,5.77,0,0,1-5.79-6.06c0-3.36,2.36-6.06,5.56-6.06,3.43,0,5.41,2.74,5.41,6.15a4.36,4.36,0,0,1,0,.54h-9.2a4.06,4.06,0,0,0,4.08,3.93m3.39-5.2c-.18-2.11-1.39-4-3.7-4-2,0-3.54,1.68-3.77,4Z"/><path class="cls-1" d="M244.94,154.81a8.12,8.12,0,0,1,.07-16.24,8.17,8.17,0,0,1,6.13,2.49l-1.21,1.3a6.82,6.82,0,0,0-4.94-2.15,6.5,6.5,0,0,0,0,13,6.82,6.82,0,0,0,5.07-2.27l1.17,1.14a8.18,8.18,0,0,1-6.28,2.76"/><path class="cls-1" d="M259,154.81a6,6,0,0,1-6-6,6,6,0,1,1,6,6m0-10.59a4.26,4.26,0,0,0-4.24,4.51,4.36,4.36,0,0,0,4.29,4.53,4.27,4.27,0,0,0,4.26-4.49,4.38,4.38,0,0,0-4.31-4.55"/><path class="cls-1" d="M269.62,154.54h-1.73v-11.6h1.73v3a5,5,0,0,1,4.73-3.23v1.86h-.14c-2.53,0-4.6,1.82-4.6,5.32Z"/><path class="cls-1" d="M281.48,154.81a6.06,6.06,0,1,1,4.64-10.05L285,146a4.69,4.69,0,0,0-3.52-1.75,4.29,4.29,0,0,0-4.15,4.51,4.34,4.34,0,0,0,4.26,4.53,4.78,4.78,0,0,0,3.54-1.73l1.1,1a6,6,0,0,1-4.73,2.24"/><path class="cls-1" d="M289.59,145.16l-.52-1.41a9.58,9.58,0,0,1,4.22-1c3.16,0,4.94,1.62,4.94,4.67v7.09h-1.66v-1.75a5.08,5.08,0,0,1-4.19,2c-2.15,0-4.33-1.21-4.33-3.64s2-3.77,5-3.77a12.38,12.38,0,0,1,3.57.49v-.4c0-2.09-1.28-3.16-3.45-3.16a8.07,8.07,0,0,0-3.52.85m.2,5.92c0,1.48,1.35,2.33,2.92,2.33,2.13,0,3.88-1.3,3.88-3.14v-1.12a12.07,12.07,0,0,0-3.41-.49c-2.18,0-3.39.94-3.39,2.42"/><path class="cls-1" d="M301.57,138.5h2v1.91h-2Zm.11,4.44h1.73v11.6h-1.73Z"/><path class="cls-1" d="M312,158.18a9.1,9.1,0,0,1-5.27-1.61l.79-1.35A7.41,7.41,0,0,0,312,156.7c2.56,0,4.22-1.42,4.22-4.13V151.2a5.5,5.5,0,0,1-4.55,2.45,5.48,5.48,0,0,1,0-11,5.44,5.44,0,0,1,4.53,2.33v-2.09h1.73v9.58c0,3.75-2.33,5.65-5.9,5.65m0-14a3.83,3.83,0,0,0-4,3.93,3.92,3.92,0,0,0,4,4,4,4,0,1,0,0-7.9"/><path class="cls-1" d="M323.22,154.54h-1.73V138.16h1.73V145a4.39,4.39,0,0,1,4-2.27c2.8,0,4.44,1.89,4.44,4.65v7.2H329.9v-6.78c0-2.16-1.17-3.5-3.21-3.5a3.41,3.41,0,0,0-3.48,3.64Z"/><path class="cls-1" d="M8,129.23c-4,0-6.39-2.22-6.39-6.56v-8.43H4.86v8.35c0,2.4,1.2,3.65,3.18,3.65s3.18-1.2,3.18-3.54v-8.45h3.25v8.33c0,4.47-2.51,6.66-6.47,6.66"/><path class="cls-1" d="M23.67,129v-6.3c0-1.52-.72-2.3-1.94-2.3s-2,.78-2,2.3V129h-3.2v-11.3h3.2v1.6A4,4,0,0,1,23,117.48c2.42,0,3.84,1.6,3.84,4.19V129Z"/><path class="cls-1" d="M29.51,113.61h3.37v2.84H29.51Zm.09,4.09h3.2V129H29.6Z"/><polygon class="cls-1" points="41.72 129.08 38.81 129.08 34.36 117.69 37.76 117.69 40.29 125.26 42.84 117.69 46.17 117.69 41.72 129.08"/><path class="cls-1" d="M57.72,124.46H49.86a2.62,2.62,0,0,0,2.76,2.21,3.7,3.7,0,0,0,2.74-1.16l1.83,1.62a6,6,0,0,1-10.52-3.73v0a5.63,5.63,0,0,1,5.59-5.88c3.77,0,5.5,2.93,5.5,6.13v0c0,.32,0,.51,0,.8m-5.46-4.41a2.52,2.52,0,0,0-2.44,2.4h4.83a2.42,2.42,0,0,0-2.38-2.4"/><path class="cls-1" d="M66.57,120.84c-2.13,0-3.44,1.29-3.44,4V129h-3.2v-11.3h3.2V120a3.49,3.49,0,0,1,3.6-2.49v3.35Z"/><path class="cls-1" d="M72.44,129.2a7.9,7.9,0,0,1-4.85-1.71L69,125.39a6.4,6.4,0,0,0,3.56,1.35c.93,0,1.35-.34,1.35-.84v0c0-.7-1.1-.93-2.34-1.31-1.58-.46-3.37-1.2-3.37-3.39v0c0-2.3,1.85-3.58,4.13-3.58a7.81,7.81,0,0,1,4.22,1.31L75.28,121A6.7,6.7,0,0,0,72.23,120c-.78,0-1.18.34-1.18.78v0c0,.63,1.08.93,2.3,1.35,1.58.53,3.42,1.29,3.42,3.35v0c0,2.51-1.88,3.65-4.32,3.65"/><path class="cls-1" d="M78.9,113.61h3.37v2.84H78.9Zm.09,4.09h3.2V129H79Z"/><path class="cls-1" d="M88.78,129.18c-2,0-3.29-.78-3.29-3.39v-5.35H84.14v-2.74h1.35v-2.89h3.2v2.89h2.66v2.74H88.69v4.83c0,.74.32,1.1,1,1.1a3.26,3.26,0,0,0,1.58-.4v2.57a4.73,4.73,0,0,1-2.53.65"/><path class="cls-1" d="M100,129.27c-.86,2.3-1.79,3.16-3.71,3.16a5.29,5.29,0,0,1-2.85-.78l1.07-2.32a2.92,2.92,0,0,0,1.37.44A1.07,1.07,0,0,0,97,129L92.6,117.69H96l2.57,7.7,2.47-7.7h3.33Z"/><path class="cls-1" d="M119.42,129.25a7.45,7.45,0,0,1-7.57-7.59v0a7.5,7.5,0,0,1,7.7-7.63,7.6,7.6,0,0,1,5.82,2.28l-2.06,2.38a5.44,5.44,0,0,0-3.77-1.66,4.37,4.37,0,0,0-4.28,4.59v0a4.38,4.38,0,0,0,4.28,4.64,5.32,5.32,0,0,0,3.88-1.73l2.06,2.09a7.54,7.54,0,0,1-6,2.63"/><path class="cls-1" d="M132.73,129.25a5.87,5.87,0,0,1-6.09-5.84v0a6.12,6.12,0,0,1,12.22,0v0a5.93,5.93,0,0,1-6.13,5.88m3-5.88a3,3,0,0,0-3-3.12,2.89,2.89,0,0,0-2.93,3.07v0a3,3,0,0,0,3,3.12,2.9,2.9,0,0,0,2.93-3.08Z"/><rect class="cls-1" x="141.1" y="113.61" width="3.2" height="15.39"/><rect class="cls-1" x="147.16" y="113.61" width="3.2" height="15.39"/><path class="cls-1" d="M163.64,124.46h-7.86a2.62,2.62,0,0,0,2.76,2.21,3.71,3.71,0,0,0,2.74-1.16l1.83,1.62a6,6,0,0,1-10.52-3.73v0a5.62,5.62,0,0,1,5.59-5.88c3.77,0,5.5,2.93,5.5,6.13v0c0,.32,0,.51,0,.8m-5.46-4.41a2.52,2.52,0,0,0-2.45,2.4h4.83a2.42,2.42,0,0,0-2.38-2.4"/><path class="cls-1" d="M170.83,132.41a10.73,10.73,0,0,1-5-1.18l1.1-2.4a7.39,7.39,0,0,0,3.82,1c2.19,0,3.23-1.06,3.23-3.08v-.55a4.42,4.42,0,0,1-3.69,1.83,5,5,0,0,1-5-5.27v0a5,5,0,0,1,5-5.27,4.57,4.57,0,0,1,3.65,1.69v-1.48h3.2v8.75c0,4.26-2.11,6-6.3,6m3.14-9.65a2.76,2.76,0,0,0-5.5,0v0a2.58,2.58,0,0,0,2.74,2.61A2.61,2.61,0,0,0,174,122.8Z"/><path class="cls-1" d="M190.35,124.46h-7.86a2.62,2.62,0,0,0,2.76,2.21,3.7,3.7,0,0,0,2.74-1.16l1.83,1.62a6,6,0,0,1-10.52-3.73v0a5.63,5.63,0,0,1,5.59-5.88c3.78,0,5.5,2.93,5.5,6.13v0c0,.32,0,.51,0,.8m-5.46-4.41a2.52,2.52,0,0,0-2.44,2.4h4.83a2.42,2.42,0,0,0-2.38-2.4"/><path class="cls-1" d="M205.93,129.25a7.45,7.45,0,0,1-7.57-7.59v0a7.5,7.5,0,0,1,7.7-7.63,7.61,7.61,0,0,1,5.82,2.28l-2.07,2.38A5.44,5.44,0,0,0,206,117a4.37,4.37,0,0,0-4.28,4.59v0a4.38,4.38,0,0,0,4.28,4.64,5.32,5.32,0,0,0,3.88-1.73l2.07,2.09a7.54,7.54,0,0,1-6,2.63"/><path class="cls-1" d="M219.24,129.25a5.87,5.87,0,0,1-6.09-5.84v0a5.93,5.93,0,0,1,6.14-5.88,5.87,5.87,0,0,1,6.09,5.84v0a5.93,5.93,0,0,1-6.13,5.88m3-5.88a3,3,0,0,0-3-3.12,2.89,2.89,0,0,0-2.93,3.07v0a3,3,0,0,0,3,3.12,2.89,2.89,0,0,0,2.93-3.08Z"/><path class="cls-1" d="M234.15,120.84c-2.13,0-3.44,1.29-3.44,4V129h-3.2v-11.3h3.2V120a3.49,3.49,0,0,1,3.6-2.49v3.35Z"/><polygon class="cls-1" points="243.27 128.99 240.32 124.38 239.2 125.56 239.2 128.99 236 128.99 236 113.61 239.2 113.61 239.2 121.81 242.96 117.69 246.79 117.69 242.49 122.14 246.94 128.99 243.27 128.99"/><path class="cls-1" d="M249.87,129h-1.31v-3.37H252v2.85c0,2.78-1.39,3.9-3.9,3.94l-.27-1.33c1.46-.15,2.17-.88,2.06-2.09"/><rect class="cls-1" x="261.11" y="114.24" width="3.25" height="14.76"/><path class="cls-1" d="M274.14,120.84c-2.13,0-3.44,1.29-3.44,4V129h-3.2v-11.3h3.2V120a3.49,3.49,0,0,1,3.6-2.49v3.35Z"/><path class="cls-1" d="M286.47,124.46h-7.86a2.62,2.62,0,0,0,2.76,2.21,3.7,3.7,0,0,0,2.74-1.16l1.84,1.62a6,6,0,0,1-10.52-3.73v0a5.63,5.63,0,0,1,5.59-5.88c3.77,0,5.5,2.93,5.5,6.13v0c0,.32,0,.51,0,.8M281,120.06a2.52,2.52,0,0,0-2.45,2.4h4.83a2.42,2.42,0,0,0-2.38-2.4"/><rect class="cls-1" x="288.77" y="113.61" width="3.2" height="15.39"/><path class="cls-1" d="M301.37,129v-1.22A4.35,4.35,0,0,1,298,129.2c-2.13,0-3.88-1.22-3.88-3.46v0c0-2.47,1.87-3.6,4.55-3.6a8,8,0,0,1,2.76.46v-.19c0-1.33-.82-2.06-2.42-2.06a8.27,8.27,0,0,0-3.12.61l-.8-2.45a10,10,0,0,1,4.39-.9c3.5,0,5,1.81,5,4.87V129Zm.06-4.55a5,5,0,0,0-2-.42c-1.37,0-2.22.55-2.22,1.56v0c0,.86.72,1.37,1.75,1.37,1.5,0,2.51-.82,2.51-2Z"/><path class="cls-1" d="M314.26,129v-6.3c0-1.52-.72-2.3-1.94-2.3s-2,.78-2,2.3V129h-3.2v-11.3h3.2v1.6a4,4,0,0,1,3.31-1.81c2.42,0,3.83,1.6,3.83,4.19V129Z"/><path class="cls-1" d="M328.26,129v-1.62a4.14,4.14,0,0,1-3.52,1.83c-2.63,0-5.15-2.06-5.15-5.84v0c0-3.77,2.47-5.84,5.15-5.84a4.34,4.34,0,0,1,3.52,1.69v-5.56h3.2V129Zm0-5.67a2.77,2.77,0,1,0-5.5,0v0a2.77,2.77,0,1,0,5.5,0Z"/><path class="cls-2" d="M7.91,41.13H46.84l.06,0v3.92a4.54,4.54,0,0,0-3.92-.9c-2.68.81-3.46-.33-3.48-.35a3.61,3.61,0,0,1-2.44,2L37,46.92H32.09L31.68,50h5v0l-.16,1.68H31.48L31,55.11h5.24l-.2,2.25H46a1.4,1.4,0,0,0,.87.78V100c-4.33-3.24-15-3.11-15-3.11a89.25,89.25,0,0,1-9.44-.41,21,21,0,0,1-9.18-2.77l-.23-.14a21.34,21.34,0,0,1-4.32-3.78A21.48,21.48,0,0,1,3.37,79.26l0-.06A29.45,29.45,0,0,1,2.65,72a38.83,38.83,0,0,1,1-9.85h0c1.54-5.67,2.14-8.48,2.14-8.48A87.76,87.76,0,0,0,7.72,42.35c0-.41.07-.81.11-1.21Z"/><path class="cls-3" d="M48.88,41.14h39c0,.39.07.82.11,1.23a87.76,87.76,0,0,0,1.89,11.35s.6,2.8,2.14,8.48h0a39.05,39.05,0,0,1,1,9.85,28.89,28.89,0,0,1-.7,7.18l0,.06A21.5,21.5,0,0,1,87,89.86a21.91,21.91,0,0,1-4.33,3.78l-.23.14a21,21,0,0,1-9.18,2.77A89.39,89.39,0,0,1,63.8,97s-10.65-.13-15,3.11V58.14a1.42,1.42,0,0,0,.89-.79h0l10,0-.2-2.22h5.24l-.46-3.4H59.19L59,50v0h5l-.41-3.09H58.77l-.1-1.14a3.6,3.6,0,0,1-2.42-2s-.83,1.16-3.48.35a4.55,4.55,0,0,0-4,.93V41.17Z"/><path class="cls-4" d="M48.31,54.26V46.54c1.87-1.79,3.3-1.77,4.41-1.46a5.22,5.22,0,0,0,2.66.17L55.85,53h0a3.91,3.91,0,0,1-3.1,0,4.93,4.93,0,0,0-4.44,1.18"/><polygon class="cls-5" points="36.31 54.13 32.24 54.13 32.45 52.56 36.45 52.55 36.31 54.13"/><polygon class="cls-5" points="36.87 47.82 36.76 49.12 32.92 49.12 33.08 47.82 36.87 47.82"/><path class="cls-5" d="M56.33,45.49a3.7,3.7,0,0,0,1.44.92v0l.76,8.89a3.69,3.69,0,0,1-1.67-1.54l-.52-8.3Z"/><path class="cls-4" d="M40.32,45.25A5.21,5.21,0,0,0,43,45.09c1.1-.31,2.54-.34,4.42,1.46v7.72A4.93,4.93,0,0,0,43,53.07a3.92,3.92,0,0,1-3.1,0Z"/><path class="cls-5" d="M37.93,46.43v0a3.76,3.76,0,0,0,1.44-.92l-.52,8.29a3.69,3.69,0,0,1-1.68,1.54Z"/><path class="cls-5" d="M46,56.36h-9A4.37,4.37,0,0,0,39.77,54l.55.15A5.25,5.25,0,0,0,43,54c1.1-.32,2.54-.35,4.41,1.44v0a1.86,1.86,0,0,0-1.37.89"/><path class="cls-5" d="M47.85,57.3h0c-.57,0-1-.22-1-.47s.46-.47,1-.47,1,.22,1,.47-.45.47-1,.47"/><polygon class="cls-1" points="61.15 48.18 61.23 48.77 62.26 48.77 62.2 48.18 61.15 48.18"/><polygon class="cls-1" points="61.82 53.01 61.89 53.63 62.92 53.63 62.85 53.01 61.82 53.01"/><path class="cls-1" d="M90.47,43.4s-.63-5.82-.7-8.92v-.2c-.32-14.83,6-23,6-23L84.53,0S78.41,3.45,68.28,3.37A33.44,33.44,0,0,1,56.65,1.69,27.21,27.21,0,0,0,47.9.54a24.55,24.55,0,0,0-8.75,1.15A33.43,33.43,0,0,1,27.52,3.37C17.39,3.45,11.27,0,11.27,0L0,11.25s6.35,8.2,6,23v.2C6,37.58,5.32,43.4,5.32,43.4A112.87,112.87,0,0,1,1.39,61.93S-2.9,79.61,6.06,90.17c4.83,5.7,9.24,8.86,22.16,9,15.2.11,17.46,2,19.64,5.39h0l0,0h.09v0h0c2.17-3.43,4.43-5.28,19.63-5.39,12.92-.09,17.33-3.25,22.16-9,9-10.56,4.67-28.24,4.67-28.24A112.35,112.35,0,0,1,90.47,43.4ZM2.91,11.61h0l-.22,0,.22,0v0l8.8-8.79h0C22,7.12,34.14,5.22,34.14,5.22a19.54,19.54,0,0,0,4.34-1A27.74,27.74,0,0,1,47.82,2.8h.12a27.77,27.77,0,0,1,9.35,1.45,19.56,19.56,0,0,0,4.35,1S73.78,7.12,84,2.73l0,0,8.79,8.77v.08c-.39.61-3.59,5.75-5,14.73a51.82,51.82,0,0,0-.11,12.83H8a52.8,52.8,0,0,0-.11-12.83C6.5,17.31,3.27,12.17,2.91,11.61ZM58.64,56.35H49.69a1.89,1.89,0,0,0-1.37-.89s0,0,0,0v0h0c1.86-1.79,3.3-1.76,4.4-1.44a5.22,5.22,0,0,0,2.66.16l.55-.15A4.42,4.42,0,0,0,58.64,56.35Zm-.11-1a3.67,3.67,0,0,1-1.67-1.54l-.52-8.29a3.71,3.71,0,0,0,1.44.92v0ZM55.85,53a3.91,3.91,0,0,1-3.1,0,4.93,4.93,0,0,0-4.44,1.18V46.54c1.87-1.79,3.31-1.77,4.41-1.46a5.2,5.2,0,0,0,2.66.17L55.86,53ZM39.77,54l.55.15A5.22,5.22,0,0,0,43,54c1.11-.32,2.54-.35,4.41,1.44a1.87,1.87,0,0,0-1.37.89h-9A4.37,4.37,0,0,0,39.77,54Zm-1.83-7.61v0a3.74,3.74,0,0,0,1.44-.92l-.52,8.29a3.7,3.7,0,0,1-1.68,1.54Zm5,6.64a3.93,3.93,0,0,1-3.11,0l.47-7.79A5.2,5.2,0,0,0,43,45.09c1.11-.31,2.54-.34,4.42,1.46v7.72A4.93,4.93,0,0,0,43,53.08Zm3.94,47c-4.33-3.24-15-3.11-15-3.11a89.25,89.25,0,0,1-9.44-.41,21,21,0,0,1-9.18-2.77l-.23-.14a21.34,21.34,0,0,1-4.32-3.78A21.48,21.48,0,0,1,3.37,79.26l0-.06A29.45,29.45,0,0,1,2.65,72a38.83,38.83,0,0,1,1-9.85h0c1.54-5.67,2.14-8.48,2.14-8.48A87.76,87.76,0,0,0,7.72,42.35c0-.41.07-.81.11-1.21l.08,0H46.84l.06,0v3.92a4.54,4.54,0,0,0-3.92-.9c-2.68.81-3.46-.33-3.48-.35a3.61,3.61,0,0,1-2.44,2L37,46.92H32.09L31.68,50h5v0l-.16,1.68H31.48L31,55.11h5.24l-.2,2.25H46a1.4,1.4,0,0,0,.87.78Zm-10-52.22-.11,1.3H32.92l.16-1.3Zm-.42,4.73-.14,1.58H32.24l.21-1.57Zm11.4,4.75c-.57,0-1-.22-1-.47s.46-.47,1-.47,1,.22,1,.47S48.42,57.3,47.85,57.3ZM92.37,79.22l0,.06A21.5,21.5,0,0,1,87,89.86a21.91,21.91,0,0,1-4.33,3.78l-.23.14a21,21,0,0,1-9.18,2.77A89.39,89.39,0,0,1,63.8,97s-10.65-.13-15,3.11V58.14a1.42,1.42,0,0,0,.89-.79h0l10,0-.2-2.22h5.24l-.46-3.4H59.19L59,50v0h5l-.41-3.09H58.77l-.1-1.14a3.6,3.6,0,0,1-2.42-2s-.83,1.16-3.48.35a4.55,4.55,0,0,0-4,.93V41.17l.07,0h39c0,.39.07.82.11,1.23a87.76,87.76,0,0,0,1.89,11.35s.6,2.8,2.14,8.48h0a39.05,39.05,0,0,1,1,9.85A28.89,28.89,0,0,1,92.37,79.22Zm-31.07-30H59l-.13-1.35h4L63,49.17H61.31Zm-2.06,3.38h4.19l.19,1.58H59.39Z"/><path class="cls-5" d="M49.68,56.36h0a1.88,1.88,0,0,0-1.37-.89s0,0,0,0v0h0c1.86-1.79,3.29-1.76,4.4-1.44a5.26,5.26,0,0,0,2.66.16l.55-.15a4.42,4.42,0,0,0,2.71,2.31Z"/><path class="cls-5" d="M59,49.17l-.12-1.35h4L63,49.17H59Zm3.3-.4-.06-.59h-1l.08.59Z"/><path class="cls-5" d="M59.25,52.55h4.19l.19,1.58H59.39Zm2.57.47h0v0Zm0,0,.07.63h1L62.85,53Z"/><path class="cls-5" d="M8,39.19H87.79a52,52,0,0,1,.11-12.83c1.37-9,4.57-14.12,5-14.73v-.08L84.07,2.75l0,0c-10.25,4.39-22.4,2.49-22.4,2.49a19.53,19.53,0,0,1-4.35-1A27.77,27.77,0,0,0,47.94,2.8h-.12a27.73,27.73,0,0,0-9.34,1.45,19.51,19.51,0,0,1-4.34,1S22,7.12,11.75,2.73h0l-8.8,8.79v0l-.22,0,.22.05h0c.36.56,3.58,5.7,5,14.73A52.7,52.7,0,0,1,8,39.17Z"/><path class="cls-1" d="M27.46,28.2h0L26.41,15.33,27,13.56h.27l1.28-3.83H25.77l-.34.95H23.55V9.73H19.43v.95H17.56l-.34-.95H14.45l1.27,3.83H16l.57,1.77L15.52,28.22h0a1.33,1.33,0,0,0-1.11,1.33,1.25,1.25,0,0,0,.92,1.21v0L15,35.32h5.77V32.14h0c0-.31.43-.56.74-.56h0c.32,0,.75.25.75.56v3.17H28l-.36-4.6v0a1.26,1.26,0,0,0,.91-1.21,1.33,1.33,0,0,0-1.12-1.33M16.4,12.6l-.63-1.92h.77l.34.93h3.5v-.92h2.24v.92h3.5l.33-.93h.78l-.63,1.92-.19,0H16.58Zm9.64,1-.32,1.05H17.27l-.33-1.05Zm-8.53,2h8l1,12.63H16.46Zm9.75,14.34H22.94a8.21,8.21,0,0,0,.74.9h3L27,34.38H23.18V32.14a1.66,1.66,0,0,0-1.69-1.49h0a1.67,1.67,0,0,0-1.69,1.49v2.24H16l.29-3.59h3a6.16,6.16,0,0,0,.71-.9H15.72a.37.37,0,0,1-.37-.36.41.41,0,0,1,.37-.41H27.25a.41.41,0,0,1,.38.41.37.37,0,0,1-.38.36m-4.06,2.25Zm-3.4,0h0Zm.36-10.93h2.77V17.38a1.36,1.36,0,0,0-1.4-1.17,1.32,1.32,0,0,0-1.37,1.17ZM21,17.46a.54.54,0,0,1,1,0v3H21Zm-3.13,9.68h2.77V23.28a1.37,1.37,0,0,0-1.4-1.18,1.32,1.32,0,0,0-1.37,1.18Zm.85-3.77a.51.51,0,0,1,.52-.37.5.5,0,0,1,.52.37v3h-1Zm6.43-.08a1.32,1.32,0,0,0-1.36-1.18,1.37,1.37,0,0,0-1.4,1.18v3.85h2.77Zm-.85,3.09h-1v-3a.54.54,0,0,1,1,0Z"/><path class="cls-2" d="M16.4,12.6l-.63-1.92h.77l.33.93h3.5v-.92h2.24v.92h3.5l.33-.93h.78l-.63,1.92-.19,0H16.57Zm9.64,1-.32,1.05H17.27l-.33-1.05Zm-8.54,2h8l1,12.63H16.46Zm9.75,14.34H22.94a8.29,8.29,0,0,0,.74.9h3L27,34.38H23.18V32.14a1.67,1.67,0,0,0-1.69-1.48h0a1.67,1.67,0,0,0-1.69,1.48v2.25H16l.28-3.59h3a5.93,5.93,0,0,0,.71-.9H15.72a.37.37,0,0,1-.37-.36.4.4,0,0,1,.37-.41H27.25a.41.41,0,0,1,.38.41.37.37,0,0,1-.38.36m-4.06,2.24Zm-3.41,0h0Zm.36-10.93h2.77V17.38a1.36,1.36,0,0,0-1.4-1.17,1.32,1.32,0,0,0-1.37,1.17Zm-2.28,5.91h2.77V23.28a1.37,1.37,0,0,0-1.4-1.18,1.33,1.33,0,0,0-1.37,1.18Zm7.28-3.85a1.32,1.32,0,0,0-1.36-1.18,1.37,1.37,0,0,0-1.4,1.18v3.85h2.77Z"/><path class="cls-1" d="M68.22,28.2a1.33,1.33,0,0,0-1.11,1.33A1.26,1.26,0,0,0,68,30.74v0l-.36,4.6h5.76V32.15c0-.31.44-.56.75-.56h0c.31,0,.74.25.74.56h0v3.18h5.77l-.37-4.6v0a1.26,1.26,0,0,0,.92-1.21,1.33,1.33,0,0,0-1.11-1.33h0L79.11,15.33l.57-1.77H80l1.27-3.83H78.47l-.34.95H76.25V9.73H72.13v.95H70.25l-.34-.95H67.15l1.28,3.83h.27l.57,1.77L68.22,28.22h0M79.1,12.62H69.28l-.19,0-.63-1.92h.78l.33.93h3.5v-.92h2.24v.92h3.5l.34-.93h.77l-.63,1.92Zm-.36.94-.33,1.05H70l-.32-1.05Zm.48,14.63H69.17l1-12.63h8Zm-10.79,1.7a.37.37,0,0,1-.38-.36.41.41,0,0,1,.38-.41H80a.41.41,0,0,1,.37.41.37.37,0,0,1-.37.36H75.68a6.16,6.16,0,0,0,.71.9h3l.29,3.59H75.88V32.14a1.67,1.67,0,0,0-1.69-1.49h0a1.66,1.66,0,0,0-1.69,1.49v2.24H68.68L69,30.8h3a8.08,8.08,0,0,0,.74-.9H68.43m4.06,2.26h0Zm3.4,0h0Zm-.36-14.76a1.32,1.32,0,0,0-1.37-1.17,1.36,1.36,0,0,0-1.4,1.17v3.85h2.76Zm-.85,3.09h-1v-3a.54.54,0,0,1,1,0Zm3.13,2.81a1.33,1.33,0,0,0-1.37-1.18A1.37,1.37,0,0,0,75,23.28v3.85h2.77ZM77,26.37h-1v-3a.5.5,0,0,1,.52-.37.51.51,0,0,1,.52.37Zm-6.43.76H73.3V23.28a1.37,1.37,0,0,0-1.4-1.18,1.32,1.32,0,0,0-1.36,1.18Zm.85-3.77a.54.54,0,0,1,1,0v3h-1Z"/><path class="cls-2" d="M79.11,12.62H69.28l-.19,0-.63-1.92h.78l.32.93h3.51v-.92h2.24v.92h3.5l.33-.93h.77l-.63,1.92Zm-.36.94-.33,1.05H70l-.32-1.05Zm.47,14.63H69.17l1-12.63h8ZM68.43,29.89a.37.37,0,0,1-.38-.36.41.41,0,0,1,.38-.41H80a.4.4,0,0,1,.37.41.37.37,0,0,1-.37.36H75.68a5.93,5.93,0,0,0,.71.9h3l.28,3.59H75.88V32.14a1.67,1.67,0,0,0-1.69-1.48h0a1.67,1.67,0,0,0-1.69,1.48v2.25H68.68L69,30.8h3a8.3,8.3,0,0,0,.74-.9H68.43m4.06,2.26h0Zm3.41,0h0Zm-.36-14.76a1.32,1.32,0,0,0-1.37-1.17,1.36,1.36,0,0,0-1.4,1.17v3.85h2.76Zm2.28,5.9a1.33,1.33,0,0,0-1.37-1.18,1.37,1.37,0,0,0-1.4,1.18v3.85h2.77Zm-7.28,3.85H73.3V23.28a1.37,1.37,0,0,0-1.4-1.18,1.32,1.32,0,0,0-1.36,1.18Z"/><path class="cls-1" d="M50.73,36.17h0Zm-2.82,0h0Zm6.19-11a.72.72,0,0,0-.53.22l-.65.67a.74.74,0,0,1-.54.22H49.65l-.45-7.57h0a8,8,0,0,0,4.08-4.52,1.65,1.65,0,0,0,.41.05,2.77,2.77,0,0,0,2.84-3,2.27,2.27,0,0,0-.23-1l.81-.39L56.7,9l-7.84,3.92h0l-.28-5.38a.39.39,0,0,0-.38-.38.38.38,0,0,0-.37.38h0l-.05,1h0C47.4,8.36,46.4,8,45,9.09a2.83,2.83,0,0,1-3,.5c.1.22.92,3,3.43,2.75a6.21,6.21,0,0,1,2.1,0h0l-.08,1.28-8.92,4.45.41.84.75-.36h0a2.81,2.81,0,0,0,2.6,1.63A3.2,3.2,0,0,0,44.61,19v0a2.14,2.14,0,0,0,1.34.32,2.29,2.29,0,0,0,.51,0l.58-.07-.42,7H44.33a1.41,1.41,0,0,1-.74-.29c-.39-.25-.74-.8-1.6-.8H34c-1.57,0-1.52,2.59-.1,2.59,1.61,0,1.48,1.36,2.21,1.36h1.05l2.93,4.21h0a1.58,1.58,0,0,0,1.36.68h4.1l1.83,2.47a.27.27,0,0,0,.24.13c.16,0,.38-.13.38-.28a.26.26,0,0,0-.08-.19l-1.58-2.14h2l1.82,2.47h0a.26.26,0,0,0,.24.13c.16,0,.39-.13.39-.28a.29.29,0,0,0-.09-.19l-1.58-2.14h2L53,36.52a.28.28,0,0,0,.25.13c.16,0,.38-.13.38-.28a.29.29,0,0,0-.08-.2v0L52,34.05h2l1.82,2.47h0a.26.26,0,0,0,.24.13c.15,0,.38-.13.38-.28a.26.26,0,0,0-.09-.2v0l-1.59-2.15H55a1.65,1.65,0,0,0,1.69-1.64l0-2.59c0-.93.22-1.71,1.71-1.71h2v-2.9ZM45.89,11.56a3.49,3.49,0,0,1-1.52-.08,2.41,2.41,0,0,1-1.07-.92h.22a3.69,3.69,0,0,0,2.19-1,1.53,1.53,0,0,1,2-.13h0l-.11,2.19a5.18,5.18,0,0,0-1.7,0m-2.15,5.85h0a2.17,2.17,0,0,0,.33.9h0a1.87,1.87,0,0,1-3.41-.25h0l15-7.45,0,0a1.82,1.82,0,0,1,0,.24c0,1.56-.32,2.76-2.74,2.76a2.73,2.73,0,0,1-1.07-.2h0a2.48,2.48,0,0,0,.69.46,6.21,6.21,0,0,1-4.18,4.16,4.16,4.16,0,0,1-4.6-.65m5,8.9H47.61l.28-7.17.43-.1.1,0Zm-7.14,6.84a1,1,0,0,1-.62-.24L38.32,29.2c-.07-.09.15-.25.26-.14l2.89,2.8a1.88,1.88,0,0,0,1.32.55h1.55l.54.75Zm4.07,0-.54-.75h2l.55.75Zm2.82,0L48,32.41h2l.54.75Zm2.81,0-.54-.75h2l.55.75Zm4.42-.87a.93.93,0,0,1-.83.87h-.77l-.56-.77a1.46,1.46,0,0,0,1.2-1l0-.07L55.89,29a2.53,2.53,0,0,0-.15.88ZM59.43,27H55.83c-.47,0-2.07,1.34-2.07,1.34a.38.38,0,0,1-.26.1h-10a.84.84,0,0,1-.2-.06l-2.62-1.32a.65.65,0,0,0-.36-.1H34.12c-.46,0-.48-.81,0-.81H42a.79.79,0,0,1,.38.1l1.07.77a1.69,1.69,0,0,0,.86.24h8.44A.76.76,0,0,0,53.3,27h0s1-.88,1.18-.88h4.93Zm-6.5,4.59s-.46-.6-.53-.72,0-.15.08-.15a.17.17,0,0,1,.14.08c.11.14.11.21.22.21A.18.18,0,0,0,53,30.8c0-.59-.56-.9-1.12-.9s-1,.28-1,.9a.26.26,0,0,0,.26.19c.21,0,.1-.28.29-.28a.15.15,0,0,1,.14.07l.37.49.21.3H50.11s-.46-.6-.53-.72,0-.15.08-.15a.17.17,0,0,1,.14.08c.11.14.11.21.22.21a.19.19,0,0,0,.21-.19c0-.59-.56-.9-1.12-.9s-1,.28-1,.9a.25.25,0,0,0,.26.19c.21,0,.11-.28.29-.28a.15.15,0,0,1,.14.07l.37.49.21.3H47.29s-.46-.6-.54-.72,0-.15.08-.15a.17.17,0,0,1,.15.08c.11.14.11.21.22.21s.21-.15.21-.19c0-.59-.56-.9-1.12-.9s-1,.28-1,.9a.26.26,0,0,0,.26.19c.21,0,.1-.28.29-.28a.15.15,0,0,1,.14.07l.37.49.21.3h-2S44,31,44,30.85s0-.15.08-.15a.17.17,0,0,1,.14.08c.11.14.11.21.22.21a.18.18,0,0,0,.21-.19c0-.59-.56-.9-1.12-.9s-1,.28-1,.9a.25.25,0,0,0,.26.19c.2,0,.1-.28.29-.28a.15.15,0,0,1,.14.07l.37.49.21.3H42.59c-.21,0-.43-.21-.58-.35l-2.81-2.67a1.42,1.42,0,0,0-.62-.12h-2.1c-.53,0-.55-.64,0-.64H40a.81.81,0,0,1,.37.09l2.6,1.38a1.1,1.1,0,0,0,.58.16h10a1.05,1.05,0,0,0,.79-.23h0l.91-.9L53.92,31l0,.06a.7.7,0,0,1-.6.51h-.37Z"/><path class="cls-2" d="M45.89,11.56a3.5,3.5,0,0,1-1.52-.08,2.4,2.4,0,0,1-1.06-.92h.22a3.69,3.69,0,0,0,2.19-1,1.53,1.53,0,0,1,2-.13h0l-.11,2.19a5.18,5.18,0,0,0-1.7,0m-2.15,5.85h0a2.22,2.22,0,0,0,.33.9h0a1.78,1.78,0,0,1-1.65,1,1.8,1.8,0,0,1-1.76-1.24h0l15-7.45,0,0a2.4,2.4,0,0,1,0,.24c0,1.56-.33,2.76-2.74,2.76a2.72,2.72,0,0,1-1.06-.2h0a2.47,2.47,0,0,0,.68.46,6.2,6.2,0,0,1-4.18,4.16,4.16,4.16,0,0,1-4.6-.65m5,8.9H47.61l.28-7.17.43-.1.1,0Zm-7.14,6.84a1,1,0,0,1-.62-.24L38.32,29.2c-.07-.09.14-.25.27-.14l2.89,2.8a1.87,1.87,0,0,0,1.32.55h1.55l.54.75Zm4.07,0-.54-.75h2l.55.75Zm2.82,0L48,32.41h2l.54.75Zm2.82,0-.54-.75h2l.55.75Zm4.42-.87a.93.93,0,0,1-.83.87h-.77l-.56-.77a1.46,1.46,0,0,0,1.2-1l0-.07L55.89,29a2.53,2.53,0,0,0-.15.88ZM59.43,27h-3.6c-.47,0-2.07,1.34-2.07,1.34a.38.38,0,0,1-.26.1h-10a.84.84,0,0,1-.2-.06l-2.62-1.32a.65.65,0,0,0-.36-.1H34.12c-.46,0-.48-.81,0-.81H42a.79.79,0,0,1,.38.1l1.06.77a1.7,1.7,0,0,0,.86.24h8.44A.76.76,0,0,0,53.3,27h0s1-.88,1.18-.88h4.93Zm-6.5,4.59s-.46-.6-.53-.72,0-.15.08-.15a.17.17,0,0,1,.14.08c.11.14.11.21.22.21s.21-.15.21-.19c0-.59-.56-.9-1.12-.9s-1,.28-1,.9a.26.26,0,0,0,.26.19c.21,0,.1-.28.29-.28a.15.15,0,0,1,.14.07l.37.49.21.3H50.11s-.46-.6-.53-.72,0-.15.08-.15a.17.17,0,0,1,.15.08c.11.14.11.21.22.21a.18.18,0,0,0,.21-.19c0-.59-.56-.9-1.12-.9s-1,.28-1,.9a.25.25,0,0,0,.26.19c.21,0,.1-.28.29-.28a.16.16,0,0,1,.14.07l.37.49.21.3H47.29s-.46-.6-.54-.72,0-.15.08-.15a.17.17,0,0,1,.15.08c.11.14.11.21.22.21a.19.19,0,0,0,.21-.19c0-.59-.56-.9-1.12-.9s-1,.28-1,.9a.26.26,0,0,0,.26.19c.21,0,.1-.28.29-.28a.15.15,0,0,1,.14.07l.37.49.2.3h-2S44,31,44,30.85s0-.15.07-.15a.17.17,0,0,1,.14.08c.11.14.11.21.22.21a.18.18,0,0,0,.21-.19c0-.59-.56-.9-1.12-.9s-1,.28-1,.9a.26.26,0,0,0,.26.19c.2,0,.1-.28.29-.28a.15.15,0,0,1,.14.07l.37.49.21.3H42.58c-.21,0-.43-.21-.58-.35l-2.81-2.67a1.43,1.43,0,0,0-.62-.12h-2.1c-.53,0-.55-.64,0-.64H40a.81.81,0,0,1,.37.09l2.6,1.38a1.09,1.09,0,0,0,.58.16h10a1.05,1.05,0,0,0,.79-.23h0l.91-.9L53.92,31l0,.06a.7.7,0,0,1-.6.51Z"/><path class="cls-5" d="M11.2,66.27c-.15,0-1.18-.38-1.18-.38-.55-.14-1.12-1.56-1.12-1.56a2.93,2.93,0,0,1,1.34-.7s1.27-.12,1.38-.69a2,2,0,0,0,0-.3s.14.2,3.72.2,3.72-.22,3.72-.22l0,.08c0,.73,1.76.93,1.76.93a1.35,1.35,0,0,1,.87.62c.1.28-.25.49-1.21,1.55-.26.3-1,.18-1.32.24l-.05.1a9.79,9.79,0,0,1,.61,1.33,1,1,0,0,0-.44.13,1.07,1.07,0,0,0-.4.47,9.6,9.6,0,0,1,.41,1,1.15,1.15,0,0,0-.73.2,2.07,2.07,0,0,1,0,1.85,2,2,0,0,0-1.06-.31l-.33,0c0,1.57-.57,1.58-.57,1.58-.54-.72-1.72.08-1.72.08-.66-.25-1.05-1.5-1.05-1.5a1.45,1.45,0,0,0-.87.54,4.44,4.44,0,0,1-.57-2,1.7,1.7,0,0,0-.94.56c-.91-1,.19-2.58.19-2.58a4.69,4.69,0,0,1-.67,0c-.51-.13-.65-.06-.68,0a9.81,9.81,0,0,1,.86-1.39M9.2,85a1.23,1.23,0,0,1,0-.6h0a1.28,1.28,0,0,0-.93.51,2.34,2.34,0,0,1,1,.1Zm.33,1.82a1.12,1.12,0,0,1-.24-.56,1.23,1.23,0,0,0-.63.82v0a2.62,2.62,0,0,1,.87-.31m16.67-.52a1.91,1.91,0,0,1,0-.28,1.6,1.6,0,0,1,0-.3,1.25,1.25,0,0,0-.82.53,3.73,3.73,0,0,1,.84,0m12,.09a1.15,1.15,0,0,1,0-.58,1.22,1.22,0,0,0-.85.61,3.24,3.24,0,0,1,.87,0M16.3,57.81c1.35-.11,2.13.25,2.6,1.25a.91.91,0,0,0,.26-.55c0-.3-.21-.82-1.42-1.18s-1.44.39-1.44.48m-3.73,4.36a8.31,8.31,0,0,0,2.06.1c.19,0,.38-.11.38-.49a.35.35,0,0,0-.38-.37,13.16,13.16,0,0,0-2,0c-.21.1-.2.65,0,.78m-.09-1.46c.12.12.77.08.77.08a.77.77,0,0,0-.79-.83s-.1.63,0,.75m3.29,1.07c0,.38.19.45.37.49a8.22,8.22,0,0,0,2.06-.1c.16-.13.17-.68,0-.78a13.08,13.08,0,0,0-2,0,.35.35,0,0,0-.37.37M18.31,60a.77.77,0,0,0-.79.83s.65,0,.77-.08,0-.75,0-.75m-2.39-1.54-.28,1,1-.33,0,1.18-1-.32.26.89h1a1.3,1.3,0,0,1,1.28-1.45c.44,0-.43-1-1.55-1a2.24,2.24,0,0,0-.72.11m-1.78-.11c-1.12,0-2,1-1.55,1a1.3,1.3,0,0,1,1.29,1.45h1l.26-.89-1,.32V59l1,.33-.28-1a2.23,2.23,0,0,0-.72-.11m-2.26.75c.47-1,1.25-1.36,2.6-1.25,0-.08-.31-.82-1.44-.48s-1.42.88-1.42,1.18a.91.91,0,0,0,.26.55M14.3,75.77a3.82,3.82,0,0,1,.39.81c.55-.4.77-.59.77-.47s-.24.52.88,1.82c1.57-.66,1.18-2.5,1.08-3,.88-.06,2,1.06,2,1.06a4.49,4.49,0,0,0,.63-1.56A11.11,11.11,0,0,0,20,73.2a3.14,3.14,0,0,1,1.6-.62c-.53-1.53.21-2,.21-2s-.64-.6-.17-2a2.34,2.34,0,0,1,.63-1.09l-.33-.15a1.42,1.42,0,0,1-.66-.62l-.2-.25c-.45.25-.65.2-.65.2.61,1.08.53,1.53.53,1.53-.62-.23-.88.06-.88.06l0,.12c.46,1.12.19,1.53.1,1.49-.3-.13-.4-.07-.4-.07,0,.35,0,.34,0,.34a2.72,2.72,0,0,1-1.27,2.43.84.84,0,0,0-.65-.78,2.22,2.22,0,0,1-1.32,1.84c-.34-1.22-1.89.08-1.89.08a14.67,14.67,0,0,0-1.13-1.52c-.22.18-.32,1-.32,1A3.41,3.41,0,0,1,11.88,71a.77.77,0,0,0-.32.56c-.85-.29-1.11-1.48-1.11-1.48a3,3,0,0,1-.87,1.76c.17.73,1.18.41,1.18.41a4,4,0,0,1-.12,2c.83.11,1-.12,1-.12a3.06,3.06,0,0,1,1.62,2.35,3.31,3.31,0,0,0,1-.78M10.85,88.1a1.08,1.08,0,0,1-.34-.5,1.25,1.25,0,0,0-.43,1l0,0a2.87,2.87,0,0,1,.75-.5m3.48-4a5.79,5.79,0,0,1,2-.91c-.67-.59.62-2.47.62-2.47a3.36,3.36,0,0,0,.34.39c.35-.59.72-1.15.72-1.15a6.09,6.09,0,0,0-1-1.44s-.75.55-.75.54c-.89-1.06-1.41-1.83-1.41-1.83a5.35,5.35,0,0,1,.1,1.18A8.44,8.44,0,0,1,13.54,83a7.55,7.55,0,0,1-2.18,1.76,6.49,6.49,0,0,0-.51-.45c-.57-.39-.8-.1-.8-.1a.4.4,0,0,0-.15.51c.05.34.49.37.49.37a1.69,1.69,0,0,1,.94.58,1.61,1.61,0,0,0-.78-.1c-.42,0-.46.33-.46.33a.58.58,0,0,0,.1.54.56.56,0,0,0,.6,0c.77-.38.94,0,.94,0-.38.13-.8.57-.44,1s1.47-.71,1.47-.71a2,2,0,0,1,1-.72c-.67-1,.6-2,.6-2m1.49,2.87-.06-.09a.54.54,0,0,1-.09-.16,1.9,1.9,0,0,1,0-.31h0a1.31,1.31,0,0,0-.67.76s0,0,0,.05a4.21,4.21,0,0,1,.89-.25m1.26,1.17,0,0L16.84,88l-.07,0-.23-.18a1.15,1.15,0,0,0,0,1l0,0a2.92,2.92,0,0,1,.53-.72m2,.37a1.27,1.27,0,0,1-.41-.27s0,0,0,0l-.06,0a1.23,1.23,0,0,0,0,1h0a3,3,0,0,1,.42-.71m9.4-10.9a6.08,6.08,0,0,1,4-1.29,4,4,0,0,0-2.3-.53,5,5,0,0,0-2.34,1Zm-1.06,6.84a0,0,0,0,1,0,0,.79.79,0,0,1,.07-.24c0-.09.1-.16.17-.28l-.17,0a1.14,1.14,0,0,0-.88.19,3.11,3.11,0,0,1,.81.38m-.1,3.72-.16-.19s0,0,0,0a1.24,1.24,0,0,1-.12-.24,1.19,1.19,0,0,0-.43.85,4.16,4.16,0,0,1,.71-.39Zm6.2-7.66a1.29,1.29,0,0,1-.82,0c1-2.71.55-3,.55-3-.09-.23-.63-.4-.63-.4a4.94,4.94,0,0,0-3.86,1.2,1.31,1.31,0,0,0-.28,1.44,4.51,4.51,0,0,1,.52-.31c1.09-.53.76.83,2.54,1.2,0,0,1.21.55,1.31,1.5A2.45,2.45,0,0,1,32.39,84a1.63,1.63,0,0,1-1.54.87,4.43,4.43,0,0,1-.89-.06,3.19,3.19,0,0,1-1.32-.52c-.57-.21-.47.62-.47.62.89.41.82.82.82.82-1.65-.75-2,.08-2,.08a.41.41,0,0,0,.25.5,5.83,5.83,0,0,0,1.37.28c-.75.39-.73.84-.73.84,0,.47.64.21.64.21a2.78,2.78,0,0,0,1.12-1.09,1.1,1.1,0,0,1,.82.83c.66-1.07,1.06-1.23,1.06-1.23a8.6,8.6,0,0,1,1.77-.94,2.18,2.18,0,0,1,1,.31,3.89,3.89,0,0,0-.4-1.59,4,4,0,0,1,.95.18,2.85,2.85,0,0,1-.17-1.72,1.91,1.91,0,0,1-1.09-1.91m5.34,3.46a1.27,1.27,0,0,0-1,.37,3.47,3.47,0,0,1,.87.22v0a.39.39,0,0,1,0-.1.52.52,0,0,1,0-.13.05.05,0,0,1,0,0,1.49,1.49,0,0,1,0-.18.53.53,0,0,1,.05-.09M39.68,88a1.17,1.17,0,0,1-.33-.32l-.07-.1a1.21,1.21,0,0,0-.27,1,2.75,2.75,0,0,1,.67-.57m.17-2.2s-.35-.26-.58-.19c0,0-.38.08-.39.4a.57.57,0,0,0,.23.42l.12.07s.22-.62.62-.69m5-1.93a1.39,1.39,0,0,1-.38-1,4.88,4.88,0,0,1,.32-2.45,6.19,6.19,0,0,1-1.13,0,3.07,3.07,0,0,0-.55-1.53,3.31,3.31,0,0,0-.44,1.14c-2.19-.72-2.59-2-2.59-2a5.24,5.24,0,0,1-.21-2.14c.14-1.76-.31-2-.31-2-.33-.66-.65-.74-1-.66s-.93.87-.93.87A2.75,2.75,0,0,1,38,73c.47-.79,1.7-.64,1.7-.64a3.22,3.22,0,0,0,2.76-3.23A3.05,3.05,0,0,0,40.35,66a4.3,4.3,0,0,0-1.5-.14,12.35,12.35,0,0,1-1.5-.09c-1-.16-1.25-1.42-1.26-1.37a1.71,1.71,0,0,0-.22,1.52,2.86,2.86,0,0,1-1.45-.3,1.25,1.25,0,0,1-.8-.88,7.26,7.26,0,0,0-.07,1.49c-2-.1-6.91-.3-6.91-2.63,0-1.51,3.43-2,5.55-1.18,0,0,.17-1,0-1.21,0,0,2.27,1.53,3.93.7a3.16,3.16,0,0,0,.92-.58s-.29.17-2-.08c-.77-.12-.59-.34-.27-1-.79,0-.53-.14-1.8-.45a3.5,3.5,0,0,0-2.49.51c-.18-1.08-.65-1.32-.65-1.32a1.69,1.69,0,0,1-.74,1.47,4.42,4.42,0,0,1-1.47.69c-.88.3-2.17.8-2.17,2.46,0,2.62,3.07,3.23,5.26,3.4A20.26,20.26,0,0,0,32.9,67c0,.11.11.71.11.71a1.48,1.48,0,0,1,2.07,0s.34-.9,1.15-.9a1.85,1.85,0,0,1,1.48.87,1.72,1.72,0,0,1,1.73-1,2.32,2.32,0,0,1-.13,4.64,8,8,0,0,1-3.08-.28,7.42,7.42,0,0,0-2.55-.78,8.66,8.66,0,0,0-3.13.43,19.59,19.59,0,0,1-5.16,0l-.45-.1a5.84,5.84,0,0,1-2.64-1.49,1.58,1.58,0,0,0,0,.74A3.16,3.16,0,0,0,23.06,71c-.77-.07-.87.39-.87.39a1.21,1.21,0,0,0,0,1c.42.7.8,1.53.8,1.53a2.22,2.22,0,0,0-.87-.37c-1.21-.11-1.39.27-1.39.27a1.33,1.33,0,0,1,.07.39,3.29,3.29,0,0,1-.62,2.06,8.38,8.38,0,0,0-.47,1A3.78,3.78,0,0,0,18.21,76a1.94,1.94,0,0,1-.57,1.94,9.78,9.78,0,0,1,1.92,3.51c.82,2.35.46,3.15.46,3.15a1.79,1.79,0,0,1-1.55,1.24,1.92,1.92,0,0,1-1-.12.63.63,0,0,0-1.06.59c.13.31.58.1.58.1.42-.17.55.1.55.1-.4,0-.43.51-.43.51,0,.35.25.39.25.39a1,1,0,0,0,.92-.24c.2-.09.2-.44.57-.64a1,1,0,0,1,.71,0c-.3,0-.5.57-.5.57-.17.66.57.65.57.65.39,0,.51-.64.51-.64a1.49,1.49,0,0,1,1-.59c.37-.13.35-.3.44-1a8.78,8.78,0,0,1,1.11-2.39c-1.33-.21-1.23-1.15-1.23-1.15a.74.74,0,0,0,.64-.37,3,3,0,0,1-.93-1.43,4.14,4.14,0,0,1,.34-2.39A5.3,5.3,0,0,1,23,75.58a5.52,5.52,0,0,0-.65,2.12,2.18,2.18,0,0,0,2.34-2.94,2.69,2.69,0,0,1,.2,2.77c2.67-.6,1.83-3.38,1.83-3.38a1.86,1.86,0,0,1,.76,1.75A3.62,3.62,0,0,1,29.64,75a3.54,3.54,0,0,0-.56-.58c3.88-.2,4.81,2.3,4.81,2.3a3.1,3.1,0,0,1,.2,2.48c.41-.19,1.73-1.12,1.73-1.12a9.21,9.21,0,0,0,.64,2.42c0-1.25,1.58-.4,1.58-.4.69.38,3.4,1.37,3.4,1.37a1.51,1.51,0,0,1,.92.89,2.48,2.48,0,0,1,.06,1.7,1.39,1.39,0,0,1-1.23,1c-.24,0-.66-.39-.66-.39a6,6,0,0,1-.51-.49c-.1-.08-.27,0-.43.08s-.08.4-.08.4a.5.5,0,0,0,.26.32,1.2,1.2,0,0,1,.71.72,1.11,1.11,0,0,1,1.11.81,1,1,0,0,0-1.42,0,.5.5,0,0,0-.12.55c.29.42.56.26,1.11,0a5.34,5.34,0,0,1,1.74-.25c.33,0,.52-.1.57-.21a8.42,8.42,0,0,0,.06-1c.06-.92,1.3-1.74,1.3-1.74"/><path class="cls-1" d="M45.4,82.91a11.11,11.11,0,0,1-.06-1.57c0-.66,1-1.16,1-1.16-.49-.55-1.85-.43-1.85-.43,0-.32-.7-1.22-.94-2.07-1,0-1.4,1.19-1.4,1.19a3,3,0,0,1-1-.84c-.49-.57-.27-2.41-.27-2.41,0-2.56-.79-2.4-.79-2.4,3.57-.63,3.33-4.33,3.33-4.33A4,4,0,0,0,39,65l-1,0c-1.34,0-1.29-1.65-1.29-1.65-1.32.11-1.55,1.64-1.55,1.64-1.14-.18-1-1.59-1-1.59-1.24.14-1.34,2-1.34,2-1.81,0-5.35-.44-5.35-1.71,0-.52.45-.92,3.12-.92a3.25,3.25,0,0,1,2.19,1,4.43,4.43,0,0,0,.09-1.4,3.79,3.79,0,0,0,3.48.36,3.68,3.68,0,0,0,2.14-2.29s-.61.57-3.08.29A4.49,4.49,0,0,0,36,59.26a2.11,2.11,0,0,1-1.78.23,3.67,3.67,0,0,0-3.33-.12s-.59-1.43-1.7-1.55c0,0,.77,1.72-1.76,2.68-.5.19-2.73.85-2.73,3.12s2.1,4.19,7.66,4.19a4.89,4.89,0,0,0,.24,1s1-1.56,2.81-.09c0,0,.34-1.18,1.09-1.18S37.64,68.7,38,68.83a1.39,1.39,0,0,1,1.17-1.24s1.49-.25,1.57,1.51c0,0,.05,1.35-1.78,1.42A7.47,7.47,0,0,1,35.83,70a7.42,7.42,0,0,0-5-.13,14.22,14.22,0,0,1-5.53,0c-1.6-.33-2.53-.9-2.53-1.54s.91-.4.85-.57c-.13-.39-.47-.63-1-.86-1.25-.49-1.5-.78.12-2.34,0,0,.11-.77-.94-1.49a2,2,0,0,0-1-.29,2.83,2.83,0,0,0,.32-1.33s-1.41.09-1.7.72c0,0-.39,0-.39-.33s0-1,0-1c0-.9.09-.87.32-1.2a1.72,1.72,0,0,0,.24-1.78,3.06,3.06,0,0,0-2.62-1.1,1.72,1.72,0,0,0-.91.63h0l-.32-1.09,1.05.35,0-1.27-1.07.36L16,54.58H14.8l.32,1.11-1.07-.36,0,1.27,1.05-.35-.32,1.09h0a1.72,1.72,0,0,0-.91-.63,3.06,3.06,0,0,0-2.62,1.1,1.71,1.71,0,0,0,.24,1.78c.23.33.32.26.32,1.17,0,0,0,.69,0,1s-.38.33-.38.33c-.29-.63-1.7-.72-1.7-.72A2.81,2.81,0,0,0,10,62.72l.06.13c-1.88.6-2.56,1.32-1.91,2.09A17.66,17.66,0,0,1,9.3,66.5a1,1,0,0,0,.54.27,3.65,3.65,0,0,0-.8,2,1.29,1.29,0,0,1,1.2-.27h.07a1.81,1.81,0,0,0-.07.61.5.5,0,0,0-.36.17,1.48,1.48,0,0,0-.28.78,3.5,3.5,0,0,1-.48,1.24l0,0a1,1,0,0,1-.61.54A1.57,1.57,0,0,0,10,73.09c.45.43-.29,1.81-.29,1.81,1.11.63,1.6.14,1.6.14,1.48.61,1.18,2.92,1.18,2.92a4.25,4.25,0,0,1,1.38-.71c.34.79,0,3.44-.77,4.79a4.54,4.54,0,0,1-1.76,1.79,1.39,1.39,0,0,0-1.27-.39,1,1,0,0,0-.74.53s-1.46,0-1.6,1.33a2.13,2.13,0,0,1,1.54.05l.14.07.11.1a2.28,2.28,0,0,0-.14.28l-.09,0a1.63,1.63,0,0,0-.92,1.87,2.08,2.08,0,0,1,1.42-.59.82.82,0,0,0,.51.21,1.57,1.57,0,0,0-.34,2,2.07,2.07,0,0,1,1.24-.92l.2,0c.13,0,.25,0,.4,0,.74,0,1.53-1.06,1.53-1.06a2.3,2.3,0,0,1,1.37-.52,1.39,1.39,0,0,0-.08,1,2.19,2.19,0,0,1,1.45-.55h.32s0,.05,0,.08l-.07.11a1.62,1.62,0,0,0,.35,2.05,2.05,2.05,0,0,1,.83-1.29l.16-.12a1,1,0,0,0,.69-.41l0,.07,0,.1s-.59,1.36.51,2a2.08,2.08,0,0,1,.68-1.33h.14a1,1,0,0,0,1.08-.8.57.57,0,0,1,.44-.39c1-.14.94-.38,1.05-.65a7.71,7.71,0,0,0,.13-1.27,9.73,9.73,0,0,1,1.4-3,2.54,2.54,0,0,1-1.19-.16A1,1,0,0,0,23,82a.8.8,0,0,1,.62-.25,7.1,7.1,0,0,0-.75-.69,1.77,1.77,0,0,1-.72-2.41c3.62.22,5-1.29,5-1.29l.67.82a2.55,2.55,0,0,0,.86,3.17,1,1,0,0,1,.57-1.23c.28.78,1.92,1.41,1.92,1.41a1.07,1.07,0,0,1,.71,1.35,1.44,1.44,0,0,1-1.38,1.25,1.9,1.9,0,0,1-1-.15,2,2,0,0,0-1-.42,1.09,1.09,0,0,0-.45.08l-.14,0a1.64,1.64,0,0,0-2,.73,2.12,2.12,0,0,1,1.34.49,1.18,1.18,0,0,0-1,.48h0s-1.46.15-1.5,1.46a2.09,2.09,0,0,1,1.54-.06l.07,0a1.29,1.29,0,0,0,.7.39s0,0,0,0a.92.92,0,0,0-.2.13,1.63,1.63,0,0,0-.54,2,2.12,2.12,0,0,1,1.29-.84h.07a1.28,1.28,0,0,0,.36.07c.59.14,1.42-.74,1.42-.74.36.63.49.6.49.6.52.37,1.15-.46,1.15-.46a7.5,7.5,0,0,1,1-1c1.22-.92,1.75-.47,1.75-.47a1.29,1.29,0,0,1,.67.63c.74-.46.52-2.11.52-2.11a5.63,5.63,0,0,1,1.13.68,2.93,2.93,0,0,0-.6-1.82,1.78,1.78,0,0,1,.18-1.84,4.83,4.83,0,0,1-1-.49c-.54-.31-.38-1.37-.38-1.37a5,5,0,0,0,.79-.49c.79,2.14,1.66,2.25,1.66,2.25,0-.35,0-1.11.28-1.18a37.55,37.55,0,0,1,3.88,1.66c.6.22.55,1.08.55,1.08a.69.69,0,0,1-.61.75,1.23,1.23,0,0,0-1.85-.54l-.13,0s-1.46-.15-1.77,1.11a2.06,2.06,0,0,1,1.52.26h0a2.09,2.09,0,0,0-.51.4h-.08s-1.44.23-1.42,1.53a2.13,2.13,0,0,1,1.53-.15h0a1.69,1.69,0,0,0,.71.46A1.61,1.61,0,0,0,39,89.26a2.11,2.11,0,0,1,1.12-1.08h0a1.56,1.56,0,0,0,.78,0,3.65,3.65,0,0,1,1.69-.43c1.69,0,1.89-.64,1.87-1.84s2-1.69,2-1.69C46.26,84,45.49,83.41,45.4,82.91ZM9.19,85a2.34,2.34,0,0,0-1-.1,1.28,1.28,0,0,1,.93-.51h0a1.25,1.25,0,0,0,0,.6Zm-.53,2.14v0a1.24,1.24,0,0,1,.63-.82,1.11,1.11,0,0,0,.24.56A2.65,2.65,0,0,0,8.66,87.09Zm16.7-.87a1.25,1.25,0,0,1,.82-.53,1.61,1.61,0,0,0,0,.3,1.63,1.63,0,0,0,0,.27A3.64,3.64,0,0,0,25.36,86.21Zm11.94.16a1.22,1.22,0,0,1,.85-.61,1.17,1.17,0,0,0,0,.58A3.23,3.23,0,0,0,37.3,86.37Zm-19.56-29c1.2.36,1.42.88,1.42,1.18a.91.91,0,0,1-.26.55c-.47-1-1.25-1.36-2.6-1.25C16.3,57.72,16.61,57,17.74,57.33Zm-5.13,4.05a13.09,13.09,0,0,1,2,0,.35.35,0,0,1,.37.37c0,.38-.18.45-.37.49a8.22,8.22,0,0,1-2.06-.1C12.41,62,12.4,61.48,12.61,61.38ZM12.46,60a.78.78,0,0,1,.79.83s-.65,0-.77-.08S12.46,60,12.46,60Zm2.93-1.82h0Zm0-.66h0Zm.76,3.92a13.12,13.12,0,0,1,2,0c.21.1.19.65,0,.78a8.21,8.21,0,0,1-2.06.1c-.19,0-.37-.11-.37-.49A.35.35,0,0,1,16.14,61.4Zm2.15-.69c-.12.12-.77.08-.77.08a.77.77,0,0,1,.79-.83S18.41,60.59,18.29,60.71Zm-1.66-2.4c1.12,0,2,1,1.55,1a1.3,1.3,0,0,0-1.29,1.45h-1l-.26-.89,1,.32V59l-1,.33.28-1A2.24,2.24,0,0,1,16.64,58.31Zm-1.79.11.28,1-1-.33v1.18l1-.32-.26.89h-1a1.3,1.3,0,0,0-1.29-1.45c-.44,0,.43-1,1.55-1A2.22,2.22,0,0,1,14.85,58.42Zm-3.23.09c0-.3.21-.82,1.42-1.18s1.44.39,1.44.48c-1.35-.11-2.13.25-2.6,1.25A.91.91,0,0,1,11.62,58.51ZM10,65.89c-.55-.14-1.12-1.56-1.12-1.56a2.94,2.94,0,0,1,1.34-.7s1.27-.12,1.38-.69a1.91,1.91,0,0,0,0-.3s.14.2,3.72.2,3.72-.22,3.72-.22l0,.08c0,.73,1.75.93,1.75.93a1.36,1.36,0,0,1,.88.62c.1.28-.25.49-1.21,1.56-.26.3-1.05.18-1.32.24l0,.1a10.15,10.15,0,0,1,.61,1.33,1,1,0,0,0-.44.12,1.06,1.06,0,0,0-.4.47,8.77,8.77,0,0,1,.41,1,1.15,1.15,0,0,0-.73.2,2.07,2.07,0,0,1,0,1.85,2,2,0,0,0-1.05-.31l-.33,0c0,1.57-.57,1.58-.57,1.58-.54-.72-1.72.08-1.72.08-.67-.25-1.05-1.5-1.05-1.5a1.46,1.46,0,0,0-.87.53,4.44,4.44,0,0,1-.57-1.95,1.7,1.7,0,0,0-.94.56c-.91-1,.18-2.57.18-2.57a4.7,4.7,0,0,1-.67,0c-.51-.13-.65-.06-.68,0a10,10,0,0,1,.86-1.39C11.06,66.24,10,65.89,10,65.89Zm3.23,10.66a3.07,3.07,0,0,0-1.63-2.35s-.17.23-1,.12a4,4,0,0,0,.12-2s-1,.31-1.17-.41a3,3,0,0,0,.86-1.76s.26,1.19,1.11,1.48a.76.76,0,0,1,.33-.56,3.4,3.4,0,0,0,1.34,2.15s.1-.79.32-1a14.67,14.67,0,0,1,1.13,1.52s1.56-1.3,1.89-.08a2.22,2.22,0,0,0,1.32-1.84.83.83,0,0,1,.65.78,2.72,2.72,0,0,0,1.27-2.43s0,0,0-.34c0,0,.1-.05.4.08.09,0,.36-.37-.1-1.49l0-.12s.26-.29.89-.06c0,0,.08-.45-.53-1.53,0,0,.2.05.65-.2l.19.25a1.45,1.45,0,0,0,.66.62l.33.15a2.34,2.34,0,0,0-.63,1.09c-.47,1.37.17,2,.17,2s-.74.46-.21,2a3.14,3.14,0,0,0-1.6.62,11,11,0,0,1,.11,1.24A4.43,4.43,0,0,1,19.44,76s-1.14-1.12-2-1.06c.11.5.49,2.34-1.08,3-1.12-1.3-.88-1.73-.88-1.82s-.22.07-.77.47a3.72,3.72,0,0,0-.39-.81A3.32,3.32,0,0,1,13.26,76.55Zm-3.16,12,0,0a1.25,1.25,0,0,1,.43-1,1.07,1.07,0,0,0,.34.5A2.86,2.86,0,0,0,10.1,88.6ZM13.73,86a2,2,0,0,0-1,.72s-1,1.27-1.46.71.06-.88.44-1c0,0-.17-.36-.94,0a.57.57,0,0,1-.61,0,.57.57,0,0,1-.1-.54s0-.28.46-.33a1.62,1.62,0,0,1,.78.1,1.69,1.69,0,0,0-.94-.58s-.44,0-.49-.37a.4.4,0,0,1,.14-.51s.23-.29.8.1a6.75,6.75,0,0,1,.51.45A7.57,7.57,0,0,0,13.54,83a8.46,8.46,0,0,0,1.37-4.65,5.29,5.29,0,0,0-.11-1.18s.52.77,1.41,1.83c0,0,.76-.54.76-.54a6.1,6.1,0,0,1,1,1.44s-.37.57-.72,1.15a3.44,3.44,0,0,1-.34-.39s-1.3,1.87-.62,2.47a5.77,5.77,0,0,0-2,.91S13.06,85,13.73,86Zm1.2,1.15s0,0,0-.05a1.31,1.31,0,0,1,.67-.76h0a2.07,2.07,0,0,0,0,.31.52.52,0,0,0,.09.16l.06.1A4.14,4.14,0,0,0,14.93,87.19Zm.76-1.45c0,.07,0,.12,0,.17a2,2,0,0,0-.84.54c-2-1.8,2.26-2.79,2.43-2.82a1.21,1.21,0,0,1-.1-1.69c.46.47.84.33.84.33-.35-1.11.4-1.48.4-1.48a8.61,8.61,0,0,1,.83,2.82,1.18,1.18,0,0,1-1.37,1.44A1.29,1.29,0,0,0,15.69,85.74Zm.86,3.08,0,0a1.14,1.14,0,0,1,0-1,2.17,2.17,0,0,0,.22.18l.07,0,.21.08,0,0A2.86,2.86,0,0,0,16.55,88.83Zm2.11.35h0a1.23,1.23,0,0,1,0-1l.06,0s0,0,0,0a1.27,1.27,0,0,0,.41.27A3,3,0,0,0,18.67,89.18Zm9.18-12.4a5,5,0,0,1,2.33-1,4,4,0,0,1,2.3.53,6.07,6.07,0,0,0-4,1.29ZM26.61,84a1.14,1.14,0,0,1,.89-.19l.17,0a3,3,0,0,0-.17.28.84.84,0,0,0-.07.24.07.07,0,0,0,0,0A3.06,3.06,0,0,0,26.61,84Zm.7,4.1a4.3,4.3,0,0,0-.71.39,1.18,1.18,0,0,1,.43-.85,1.23,1.23,0,0,0,.13.24s0,0,0,0l.16.19Zm7.3-5.75a2.86,2.86,0,0,0,.17,1.72,4,4,0,0,0-1-.18,3.9,3.9,0,0,1,.4,1.6,2.19,2.19,0,0,0-1-.31,8.61,8.61,0,0,0-1.77.94s-.41.17-1.06,1.23a1.1,1.1,0,0,0-.82-.83,2.77,2.77,0,0,1-1.12,1.09s-.69.25-.64-.21c0,0,0-.45.73-.84a5.77,5.77,0,0,1-1.37-.28.41.41,0,0,1-.26-.5s.4-.82,2-.08c0,0,.07-.4-.82-.82,0,0-.1-.83.47-.62a3.22,3.22,0,0,0,1.32.52,4.39,4.39,0,0,0,.89.06A1.63,1.63,0,0,0,32.39,84a2.47,2.47,0,0,0,.46-1.88c-.1-1-1.31-1.5-1.31-1.5-1.78-.37-1.46-1.72-2.54-1.2a4.52,4.52,0,0,0-.52.31,1.31,1.31,0,0,1,.27-1.44,5,5,0,0,1,3.87-1.2s.54.17.63.4c0,0,.44.28-.55,3a1.29,1.29,0,0,0,.82,0A1.91,1.91,0,0,0,34.61,82.38ZM38.81,84a1.37,1.37,0,0,0,0,.18.07.07,0,0,0,0,0,2.56,2.56,0,0,0,0,.24v0a3.5,3.5,0,0,0-.87-.22,1.27,1.27,0,0,1,1-.37Zm.2,4.54a1.22,1.22,0,0,1,.27-1l.07.1a1.18,1.18,0,0,0,.33.32A2.75,2.75,0,0,0,39,88.56Zm.22-2.08-.12-.07a.57.57,0,0,1-.24-.42c0-.32.39-.4.39-.4.23-.06.59.19.59.19C39.45,85.86,39.22,86.48,39.22,86.48Zm4.32-.89a8.38,8.38,0,0,1-.07,1c-.05.11-.24.2-.57.21a5.36,5.36,0,0,0-1.74.25c-.55.26-.82.42-1.11,0a.49.49,0,0,1,.12-.55,1,1,0,0,1,1.42,0,1.1,1.1,0,0,0-1.11-.81,1.22,1.22,0,0,0-.71-.72.49.49,0,0,1-.25-.32s-.08-.28.08-.4.33-.15.43-.08a5.87,5.87,0,0,0,.51.49s.41.41.66.39a1.39,1.39,0,0,0,1.23-1,2.46,2.46,0,0,0-.06-1.7,1.5,1.5,0,0,0-.92-.89s-2.71-1-3.4-1.37c0,0-1.61-.84-1.58.4a9.24,9.24,0,0,1-.64-2.42S34.5,79,34.1,79.2a3.1,3.1,0,0,0-.2-2.48s-.94-2.5-4.81-2.3a3.52,3.52,0,0,1,.56.58,3.62,3.62,0,0,0-2.16.89,1.86,1.86,0,0,0-.76-1.75s.84,2.78-1.83,3.38a2.69,2.69,0,0,0-.2-2.77,2.18,2.18,0,0,1-2.34,2.94A5.51,5.51,0,0,1,23,75.58a5.31,5.31,0,0,0-1.53,2.17,4.15,4.15,0,0,0-.34,2.39A3,3,0,0,0,22,81.57a.73.73,0,0,1-.64.37s-.1.94,1.23,1.15a8.8,8.8,0,0,0-1.11,2.39c-.09.66-.07.83-.44,1a1.49,1.49,0,0,0-1,.59s-.12.6-.51.64c0,0-.73,0-.57-.64,0,0,.19-.54.5-.58a1,1,0,0,0-.71,0c-.37.2-.37.55-.57.64a1,1,0,0,1-.91.24s-.27,0-.25-.38c0,0,0-.52.43-.52,0,0-.13-.27-.55-.1,0,0-.45.21-.58-.1a.63.63,0,0,1,1.05-.59,1.93,1.93,0,0,0,1.05.12A1.79,1.79,0,0,0,20,84.55s.36-.8-.47-3.15a9.77,9.77,0,0,0-1.92-3.51A1.93,1.93,0,0,0,18.21,76a3.79,3.79,0,0,1,1.55,1.28,8.37,8.37,0,0,1,.46-1,3.3,3.3,0,0,0,.62-2.06,1.38,1.38,0,0,0-.07-.38s.18-.39,1.39-.28a2.23,2.23,0,0,1,.87.37s-.38-.83-.8-1.53a1.21,1.21,0,0,1,0-1s.1-.46.87-.39a3.18,3.18,0,0,1-.75-1.14,1.61,1.61,0,0,1,0-.74,5.84,5.84,0,0,0,2.64,1.49l.45.1a19.66,19.66,0,0,0,5.16,0,8.64,8.64,0,0,1,3.13-.43,7.44,7.44,0,0,1,2.56.78,8,8,0,0,0,3.07.28,2.32,2.32,0,0,0,.13-4.64,1.72,1.72,0,0,0-1.73,1,1.85,1.85,0,0,0-1.48-.87c-.81,0-1.15.9-1.15.9a1.47,1.47,0,0,0-2.07,0s-.11-.6-.11-.71A20.66,20.66,0,0,1,30.73,67c-2.19-.16-5.26-.77-5.26-3.4,0-1.66,1.29-2.16,2.17-2.46a4.48,4.48,0,0,0,1.46-.69A1.69,1.69,0,0,0,29.85,59s.46.25.65,1.32A3.49,3.49,0,0,1,33,59.76c1.27.31,1,.41,1.81.45-.33.66-.5.88.26,1,1.69.25,2,.08,2,.08a3.15,3.15,0,0,1-.93.58c-1.66.83-3.93-.7-3.93-.7.17.22,0,1.21,0,1.21-2.11-.79-5.54-.32-5.54,1.18,0,2.33,4.92,2.53,6.91,2.62a7.16,7.16,0,0,1,.07-1.48,1.26,1.26,0,0,0,.8.88,2.89,2.89,0,0,0,1.44.31,1.73,1.73,0,0,1,.22-1.53c0-.05.24,1.2,1.26,1.37a12.45,12.45,0,0,0,1.51.09,4.34,4.34,0,0,1,1.5.14,3.05,3.05,0,0,1,2.15,3.12,3.22,3.22,0,0,1-2.76,3.23s-1.23-.14-1.7.64a2.79,2.79,0,0,0-.38,1.17s.55-.78.93-.87.63,0,1,.66c0,0,.45.2.31,2A5.27,5.27,0,0,0,40.07,78s.41,1.32,2.6,2a3.28,3.28,0,0,1,.44-1.14,3.07,3.07,0,0,1,.55,1.53,6.09,6.09,0,0,0,1.13,0,4.9,4.9,0,0,0-.32,2.45,1.4,1.4,0,0,0,.38,1S43.6,84.68,43.55,85.59ZM11,64.88a.56.56,0,0,0-.41-.52,1.7,1.7,0,0,0-1,0,1.26,1.26,0,0,1,.59-.26,1.54,1.54,0,0,1,.54,0,.55.55,0,0,1,.5.36S11.33,64.73,11,64.88Zm5.25,0a2,2,0,0,0,1.42.35.77.77,0,0,0,.68-.61h0c0-.36.61-1.11.61-1.11a.61.61,0,0,1-.13.09,2.06,2.06,0,0,1-1.07.33l-.81.05a.88.88,0,0,0-.69.29,1.87,1.87,0,0,0-.3.75l.13-.15A.1.1,0,0,1,16.22,64.88ZM14.91,66s-.77,1,.45,1h0c1.21,0,.44-1,.44-1s1.49,1.14.44,1.49h.09c1.78,0,1-1.71,1-1.71s1.37,1.54.17,2.17l.06,0a.29.29,0,0,1,.1.4c-.11.19-2,1.95-2,1.95-.17.33-.48.33-.65,0,0,0-1.85-1.76-2-1.95a.3.3,0,0,1,.1-.4.08.08,0,0,0,.06,0c-1.19-.63.18-2.17.18-2.17s-.8,1.71,1,1.71h.09C13.43,67.17,14.91,66,14.91,66Zm1.24,3.17s1-1,1.06-1.09h0a4.34,4.34,0,0,1-.68.15S16.39,68.66,16.15,69.21Zm-1.55,0c-.24-.55-.39-.94-.39-.94a4.64,4.64,0,0,1-.68-.15h0S14.6,69.21,14.6,69.21Zm.07-.94s.25,1.28.7,1.28.71-1.28.71-1.28h-.14a.58.58,0,0,1-.36-.13h-.42a.63.63,0,0,1-.36.13h-.14Zm-1.54-3.09s.85.27,1-.45h0a.21.21,0,0,1,.18-.12.2.2,0,0,1,.14.06h0a2.16,2.16,0,0,1,.37.37,1.89,1.89,0,0,0-.3-.75.86.86,0,0,0-.7-.29,6.94,6.94,0,0,1-1.11,0s-.31.05-.77-.39a.58.58,0,0,0-.12-.09S12.48,65.08,13.13,65.18Zm6.63-.3a.58.58,0,0,1,.41-.57,1.34,1.34,0,0,1,1-.05s0-.13-.51-.26a1.89,1.89,0,0,0-.72,0,.54.54,0,0,0-.38.44S19.4,64.73,19.76,64.88Z"/><path class="cls-5" d="M53.81,70.41,51.59,63s3.41,4.22,3.56,4.43c.27.37.66.19.65-.18s-.39-5.41-.42-6c0,0,2.51,5.55,2.65,5.89s.59.35.67-.07,1.06-6.32,1.06-6.32,1,5.83,1.06,6.32.5.45.67.07,2.65-5.89,2.65-5.89c0,.63-.42,5.72-.42,6s.38.56.65.18c.15-.21,3.56-4.43,3.56-4.43l-2.23,7.46Z"/><path class="cls-1" d="M60.88,73.88l.1-.1V72.12l-.1-.09H58.64l-.1.09v1.66l.1.1Zm-1.71-1.27h1.22v.71H59.17Z"/><path class="cls-1" d="M63.59,73.91a1,1,0,1,0,0-1.91,1,1,0,1,0,0,1.91Zm0-1.43a.46.46,0,1,1,0,.92.46.46,0,1,1,0-.92Z"/><path class="cls-1" d="M55.94,73.91a1,1,0,1,0-1-1A1,1,0,0,0,55.94,73.91Zm0-1.43a.46.46,0,1,1,0,.92.46.46,0,1,1,0-.92Z"/><path class="cls-1" d="M68.86,61.21a.59.59,0,0,0-.7.23l-3.52,4.36L65,60.14c0-.52-.16-.66-.4-.73a.59.59,0,0,0-.69.41c-.22.49-2.59,5.69-2.59,5.69l-1-6.21c-.15-.62-.34-.79-.56-.79s-.4.17-.55.79l-1,6.21s-2.37-5.2-2.59-5.69a.59.59,0,0,0-.69-.41c-.24.07-.38.21-.4.73l.36,5.67-3.52-4.36a.59.59,0,0,0-.7-.23c-.25.09-.29.41-.21.69.14.44,2.45,8.52,2.45,8.52h-.49a.47.47,0,1,0,0,.93h.46v3.17h-.46a.47.47,0,0,0-.48.46.46.46,0,0,0,.48.45H67.11a.46.46,0,0,0,.48-.45.47.47,0,0,0-.48-.46h-.46V71.36h.46a.47.47,0,1,0,0-.93h-.49s2.32-8.07,2.45-8.52C69.15,61.62,69.11,61.29,68.86,61.21Zm-3,13.3H53.73V71.35H65.84Zm-.11-4.1H53.81L51.59,63s3.41,4.22,3.56,4.43c.27.37.66.19.65-.18s-.39-5.41-.42-6c0,0,2.51,5.55,2.65,5.89s.59.35.67-.07,1.06-6.32,1.06-6.32,1,5.83,1.06,6.32.5.45.67.07,2.65-5.89,2.65-5.89c0,.63-.42,5.72-.42,6s.38.56.65.18c.15-.21,3.56-4.43,3.56-4.43Z"/><path class="cls-5" d="M60.88,73.88l.1-.1V72.12l-.1-.09H58.64l-.1.09v1.66l.1.1Zm-1.71-1.27h1.22v.71H59.17Zm4.42,1.3a1,1,0,1,0,0-1.91,1,1,0,1,0,0,1.91Zm0-1.43a.46.46,0,1,1,0,.92.46.46,0,1,1,0-.92Zm-7.67,1.43a1,1,0,1,0-1-1A1,1,0,0,0,55.94,73.91Zm0-1.43a.46.46,0,1,1,0,.92.46.46,0,1,1,0-.92Zm9.89,2H53.73V71.35H65.84Z"/><path class="cls-5" d="M75,70.41,72.78,63s3.41,4.22,3.56,4.43c.28.37.66.19.65-.18s-.39-5.41-.42-6c0,0,2.51,5.55,2.65,5.89s.59.35.67-.07S81,60.65,81,60.65s1,5.83,1.06,6.32.5.45.67.07,2.65-5.89,2.65-5.89c0,.63-.42,5.72-.42,6s.38.56.65.18c.15-.21,3.56-4.43,3.56-4.43l-2.23,7.46Z"/><path class="cls-1" d="M82.08,73.88l.1-.1V72.12L82.08,72H79.84l-.1.09v1.66l.1.1Zm-1.71-1.27h1.22v.71H80.36Z"/><path class="cls-1" d="M84.79,73.91a1,1,0,1,0,0-1.91,1,1,0,1,0,0,1.91Zm0-1.43a.46.46,0,1,1,0,.92.46.46,0,1,1,0-.92Z"/><path class="cls-1" d="M77.14,73.91a1,1,0,1,0-1-1A1,1,0,0,0,77.14,73.91Zm0-1.43a.46.46,0,1,1,0,.92.46.46,0,1,1,0-.92Z"/><path class="cls-1" d="M90.06,61.21a.59.59,0,0,0-.7.23l-3.51,4.36.36-5.67c0-.52-.16-.66-.4-.73a.59.59,0,0,0-.69.41c-.22.49-2.59,5.69-2.59,5.69l-1-6.21c-.15-.62-.34-.79-.56-.79s-.4.17-.55.79l-1,6.21s-2.37-5.2-2.59-5.69a.59.59,0,0,0-.69-.41c-.24.07-.38.21-.4.73l.35,5.67-3.51-4.36a.59.59,0,0,0-.7-.23c-.25.09-.29.41-.21.69.13.44,2.45,8.52,2.45,8.52h-.49a.47.47,0,1,0,0,.93h.46v3.17h-.46a.47.47,0,0,0-.48.46.46.46,0,0,0,.48.45H88.3a.46.46,0,0,0,.48-.45.47.47,0,0,0-.48-.46h-.46V71.36h.46a.47.47,0,1,0,0-.93h-.49s2.32-8.07,2.45-8.52C90.35,61.62,90.3,61.29,90.06,61.21Zm-3,13.3H74.92V71.35H87Zm-.11-4.1H75L72.78,63s3.41,4.22,3.56,4.43c.28.37.66.19.65-.18s-.39-5.41-.42-6c0,0,2.51,5.55,2.65,5.89s.59.35.67-.07S81,60.65,81,60.65s1,5.83,1.06,6.32.5.45.67.07,2.65-5.89,2.65-5.89c0,.63-.42,5.72-.42,6s.38.56.65.18c.15-.21,3.56-4.43,3.56-4.43Z"/><path class="cls-5" d="M82.08,73.88l.1-.1V72.12L82.08,72H79.84l-.1.09v1.66l.1.1Zm-1.71-1.27h1.22v.71H80.36Zm4.42,1.3a1,1,0,1,0,0-1.91,1,1,0,1,0,0,1.91Zm0-1.43a.46.46,0,1,1,0,.92.46.46,0,1,1,0-.92Zm-7.67,1.43a1,1,0,1,0-1-1A1,1,0,0,0,77.14,73.91Zm0-1.43a.46.46,0,1,1,0,.92.46.46,0,1,1,0-.92Zm9.89,2H74.92V71.35H87Z"/><path class="cls-5" d="M64.4,87.83l-2.23-7.46s3.41,4.22,3.56,4.43c.28.37.66.19.65-.19s-.39-5.41-.42-6c0,0,2.51,5.55,2.65,5.89s.59.35.67-.07,1.06-6.32,1.06-6.32,1,5.83,1.06,6.32.5.45.67.07,2.65-5.89,2.65-5.89c0,.63-.42,5.71-.42,6s.38.56.65.19c.15-.21,3.56-4.43,3.56-4.43l-2.23,7.46Z"/><path class="cls-1" d="M71.47,91.3l.1-.09V89.54l-.09-.09H69.23l-.1.09v1.66l.1.09ZM69.76,90H71v.71H69.76Z"/><path class="cls-1" d="M74.18,91.33a1,1,0,1,0,0-1.91,1,1,0,1,0,0,1.91Zm0-1.42a.46.46,0,1,1,0,.92.46.46,0,1,1,0-.92Z"/><path class="cls-1" d="M66.53,91.33a1,1,0,1,0-1-1A1,1,0,0,0,66.53,91.33Zm0-1.42a.46.46,0,1,1,0,.92.46.46,0,1,1,0-.92Z"/><path class="cls-1" d="M79.45,78.63a.59.59,0,0,0-.7.23l-3.52,4.36.35-5.67c0-.52-.16-.66-.4-.73a.59.59,0,0,0-.69.41c-.22.49-2.59,5.69-2.59,5.69l-1-6.21c-.15-.62-.34-.79-.56-.79s-.4.17-.55.79l-1,6.21s-2.37-5.2-2.59-5.69a.59.59,0,0,0-.69-.41c-.24.07-.38.21-.4.73l.35,5.67L62,78.86a.59.59,0,0,0-.7-.23c-.25.09-.29.41-.21.69.13.44,2.45,8.52,2.45,8.52H63a.47.47,0,1,0,0,.93h.46v3.17H63a.47.47,0,0,0-.48.46.46.46,0,0,0,.48.45H77.7a.46.46,0,0,0,.48-.45.47.47,0,0,0-.48-.46h-.46V88.78h.46a.47.47,0,1,0,0-.93H77.2s2.32-8.07,2.45-8.52C79.74,79,79.7,78.72,79.45,78.63Zm-3,13.3H64.32V88.77H76.42Zm-.11-4.1H64.4l-2.23-7.46s3.41,4.22,3.56,4.43c.28.37.66.19.65-.19s-.39-5.41-.42-6c0,0,2.51,5.55,2.65,5.89s.59.35.67-.07,1.06-6.32,1.06-6.32,1,5.83,1.06,6.32.5.45.67.07,2.65-5.89,2.65-5.89c0,.63-.42,5.71-.42,6s.38.56.65.19c.15-.21,3.56-4.43,3.56-4.43Z"/><path class="cls-5" d="M71.47,91.3l.1-.09V89.54l-.09-.09H69.23l-.1.09v1.66l.1.09ZM69.76,90H71v.71H69.76Zm4.42,1.3a1,1,0,1,0,0-1.91,1,1,0,1,0,0,1.91Zm0-1.42a.46.46,0,1,1,0,.92.46.46,0,1,1,0-.92Zm-7.67,1.42a1,1,0,1,0-1-1A1,1,0,0,0,66.53,91.33Zm0-1.42a.46.46,0,1,1,0,.92.46.46,0,1,1,0-.92Zm9.89,2H64.32V88.77H76.42Z"/></svg>